# xmcd CD database file
#
# Track frame offsets:
#	150
#	36940
#	52214
#	91541
#	128319
#	137059
#	173023
#
# Disc length: 2969 seconds
#
# Revision: 0
# Processed by: cddbd v1.5.2PL0 Copyright (c) Steve Scherf et al.
# Submitted via: CDex 1.70beta2
#
DISCID=510b9707
DTITLE=Floros Floridis - The Trip Goes On
DYEAR=2010
DGENRE=Jazz
TTITLE0=Lyto-Loose Dance
TTITLE1=Tomi I
TTITLE2=Otherness
TTITLE3=Epirus Variations
TTITLE4=Something For Other(ness)
TTITLE5=Abstract Folk
TTITLE6=Tomi II
EXTD=YEAR: 2010
EXTT0=
EXTT1=
EXTT2=
EXTT3=
EXTT4=
EXTT5=
EXTT6=
PLAYORDER=
